<?xml version="1.0" standalone="no"?>
<!DOCTYPE svg PUBLIC "-//W3C//DTD SVG 20010904//EN"
 "http://www.w3.org/TR/2001/REC-SVG-20010904/DTD/svg10.dtd">
<svg version="1.0" xmlns="http://www.w3.org/2000/svg"
 width="700.000000pt" height="700.000000pt" viewBox="0 0 700.000000 700.000000"
 preserveAspectRatio="xMidYMid meet">
<metadata>
Created by potrace 1.14, written by Peter Selinger 2001-2017
</metadata>
<g transform="translate(0.000000,700.000000) scale(0.100000,-0.100000)"
fill="#000000" stroke="none">
<path d="M3357 6814 c-1 -1 -58 -4 -127 -8 -69 -4 -137 -8 -150 -11 -14 -2
-43 -6 -65 -9 -315 -40 -683 -145 -930 -264 l-58 -28 84 -85 84 -84 110 46
c197 83 485 168 660 195 28 5 52 9 55 9 3 1 32 5 65 9 33 5 69 10 80 12 32 7
253 18 345 18 95 0 314 -11 345 -18 12 -2 48 -7 80 -11 33 -4 69 -9 80 -11 11
-2 34 -7 50 -10 141 -25 422 -101 510 -139 17 -7 68 -28 115 -46 124 -48 329
-155 469 -244 360 -228 667 -528 916 -895 41 -60 75 -112 75 -115 0 -3 11 -22
23 -43 137 -217 303 -644 352 -903 3 -13 7 -35 10 -49 2 -14 7 -38 10 -55 3
-16 7 -40 9 -51 4 -20 19 -146 31 -262 13 -115 6 -485 -9 -567 -2 -11 -7 -49
-11 -85 -25 -226 -123 -580 -223 -804 l-40 -89 85 -84 c47 -46 87 -83 88 -81
2 2 24 50 50 108 76 173 175 483 200 630 3 19 10 53 15 75 5 22 11 64 15 94 4
30 8 63 11 74 2 11 6 52 10 91 3 39 8 82 10 96 6 34 5 422 -1 490 -34 377
-101 677 -220 986 -291 755 -814 1348 -1525 1726 -58 30 -153 75 -290 136
-129 58 -524 173 -670 196 -19 3 -46 8 -60 11 -14 3 -41 7 -60 10 -19 3 -53 7
-75 10 -87 12 -124 15 -220 21 -102 6 -304 11 -308 8z"/>
<path d="M1186 5825 c-21 -18 -30 -36 -33 -68 -4 -37 -1 -47 25 -75 24 -26 38
-32 70 -32 48 0 89 29 100 73 26 96 -86 167 -162 102z"/>
<path d="M2609 5206 c-2 -2 -27 -6 -55 -10 -268 -32 -550 -246 -679 -517 -53
-114 -77 -215 -80 -354 -7 -237 51 -417 188 -591 149 -187 350 -308 573 -344
38 -6 193 -12 350 -12 302 -1 322 3 358 54 27 38 18 108 -18 143 -45 45 -51
46 -358 49 -312 3 -344 7 -455 57 -240 107 -390 333 -395 594 -3 141 22 243
87 353 101 172 266 289 465 328 19 4 598 8 1285 8 1216 2 1251 2 1279 21 30
20 56 69 56 107 0 13 -9 37 -20 55 -41 67 51 63 -1328 63 -687 0 -1251 -2
-1253 -4z"/>
<path d="M515 4948 c-84 -188 -176 -453 -200 -576 -1 -9 -8 -35 -13 -57 -10
-35 -41 -216 -56 -325 -27 -187 -28 -697 -2 -825 2 -11 7 -47 10 -80 22 -198
134 -628 206 -790 5 -11 20 -47 34 -80 147 -360 400 -737 682 -1019 156 -156
360 -321 514 -416 30 -18 82 -50 115 -70 197 -121 532 -265 770 -331 254 -71
409 -99 700 -128 82 -8 540 -6 585 3 14 2 54 7 90 11 36 3 72 7 80 10 8 2 38
6 65 10 140 17 408 86 589 151 77 27 306 124 306 129 0 2 -37 41 -83 88 l-83
84 -55 -24 c-204 -91 -431 -163 -659 -208 -92 -19 -98 -20 -180 -30 -30 -3
-61 -8 -68 -10 -46 -15 -405 -23 -565 -12 -87 6 -130 11 -282 33 -421 59 -928
268 -1295 534 -342 247 -663 595 -858 930 -117 199 -195 366 -265 565 -67 194
-128 447 -143 600 -3 33 -7 66 -9 72 -22 69 -23 527 -1 693 3 19 8 55 11 80 3
25 12 79 20 120 8 41 16 86 19 100 20 121 105 390 172 547 24 57 44 107 44
113 0 10 -153 170 -162 170 -3 0 -17 -28 -33 -62z"/>
<path d="M3899 3623 c-86 -11 -122 -31 -148 -80 -31 -60 6 -144 71 -158 17 -4
148 -7 292 -8 297 0 346 -7 472 -67 149 -72 295 -235 342 -386 92 -291 2 -577
-238 -758 -84 -64 -167 -100 -280 -122 -19 -4 -597 -8 -1285 -8 -1203 -2
-1251 -2 -1278 -20 -38 -25 -55 -63 -53 -112 3 -51 31 -91 76 -104 41 -13
2546 -9 2595 3 17 5 48 13 70 18 243 64 477 261 590 500 50 107 75 215 81 349
12 322 -123 595 -391 789 -124 90 -262 142 -419 157 -59 6 -462 12 -497 7z"/>
<path d="M5723 1348 c-74 -19 -98 -114 -44 -169 63 -62 170 -17 171 72 0 67
-62 115 -127 97z"/>
</g>
</svg>
