<svg width="260" height="260" viewBox="0 0 260 260" fill="none" xmlns="http://www.w3.org/2000/svg">
<g clip-path="url(#clip0_3_86)">
<path d="M49.3642 209.874C84.4721 244.982 136.671 252.572 179.137 232.635L185.458 238.956C140.615 260.934 80.9498 252.904 43.6418 215.596C6.33379 178.288 -1.67607 118.603 20.3018 73.7608L26.6029 80.1014C6.66598 122.567 14.2564 174.766 49.3642 209.874Z" fill="url(#paint0_linear_3_86)"/>
<path d="M240.436 183.978C262.414 139.136 253.666 80.1881 216.358 42.8801C179.05 5.57208 120.103 -3.17565 75.2604 18.8022L81.5812 25.123C124.047 5.18612 176.246 12.7765 211.354 47.8844C246.462 82.9922 254.052 135.191 234.115 177.657L240.436 183.978Z" fill="url(#paint1_linear_3_86)"/>
<path d="M188.943 66.5234C190.212 66.5234 191.27 66.9768 192.116 67.8836C193.023 68.73 193.477 69.7879 193.477 71.0575C193.477 72.327 193.023 73.4152 192.116 74.322C191.27 75.1683 190.212 75.5915 188.943 75.5915H100.529C93.637 75.5915 87.7427 78.0399 82.846 82.9367C78.0097 87.773 75.5915 93.637 75.5915 100.529C75.5915 107.42 78.0097 113.315 82.846 118.211C87.7427 123.048 93.637 125.466 100.529 125.466H117.559C117.559 125.466 121.875 126.537 121.875 130.363C121.875 134.188 117.559 134.534 117.559 134.534H143.457C143.457 134.534 138.887 134.534 138.887 130.363C138.887 126.191 143.457 125.466 143.457 125.466H159.471C168.842 125.466 176.852 128.791 183.502 135.441C190.152 142.091 193.477 150.101 193.477 159.471C193.477 168.842 190.152 176.852 183.502 183.502C176.852 190.152 168.842 193.477 159.471 193.477H71.0575C69.7879 193.477 68.6998 193.053 67.793 192.207C66.9466 191.3 66.5234 190.212 66.5234 188.943C66.5234 187.673 66.9466 186.615 67.793 185.769C68.6998 184.862 69.7879 184.408 71.0575 184.408H159.471C166.363 184.408 172.227 181.99 177.063 177.154C181.96 172.257 184.408 166.363 184.408 159.471C184.408 152.58 181.96 146.716 177.063 141.879C172.227 136.982 166.363 134.534 159.471 134.534H100.529C91.1584 134.534 83.1483 131.209 76.4983 124.559C69.8484 117.909 66.5234 109.899 66.5234 100.529C66.5234 91.1584 69.8484 83.1483 76.4983 76.4983C83.1483 69.8484 91.1584 66.5234 100.529 66.5234H188.943Z" fill="url(#paint2_linear_3_86)"/>
<rect x="42.6562" y="42.6562" width="7.61719" height="7.61719" rx="3.80859" fill="url(#paint3_linear_3_86)"/>
<rect x="209.727" y="209.727" width="7.61719" height="7.61719" rx="3.80859" fill="url(#paint4_linear_3_86)"/>
</g>
<defs>
<linearGradient id="paint0_linear_3_86" x1="43.6418" y1="215.596" x2="216.358" y2="42.8801" gradientUnits="userSpaceOnUse">
<stop stop-color="#87A8F3"/>
<stop offset="1" stop-color="#EC7FD3"/>
</linearGradient>
<linearGradient id="paint1_linear_3_86" x1="43.6418" y1="215.596" x2="216.358" y2="42.8801" gradientUnits="userSpaceOnUse">
<stop stop-color="#87A8F3"/>
<stop offset="1" stop-color="#EC7FD3"/>
</linearGradient>
<linearGradient id="paint2_linear_3_86" x1="130" y1="66.5234" x2="130" y2="193.477" gradientUnits="userSpaceOnUse">
<stop stop-color="#87A8F3"/>
<stop offset="1" stop-color="#EC7FD3"/>
</linearGradient>
<linearGradient id="paint3_linear_3_86" x1="46.4648" y1="42.6562" x2="46.4648" y2="50.2734" gradientUnits="userSpaceOnUse">
<stop stop-color="#87A8F3"/>
<stop offset="1" stop-color="#EC7FD3"/>
</linearGradient>
<linearGradient id="paint4_linear_3_86" x1="213.535" y1="209.727" x2="213.535" y2="217.344" gradientUnits="userSpaceOnUse">
<stop stop-color="#87A8F3"/>
<stop offset="1" stop-color="#EC7FD3"/>
</linearGradient>
<clipPath id="clip0_3_86">
<rect width="260" height="260" fill="white"/>
</clipPath>
</defs>
</svg>
